<svg xmlns="http://www.w3.org/2000/svg" viewBox="0 0 64 64" role="img" aria-labelledby="title desc">
  <title id="title">Foundation-inspired portfolio icon</title>
  <desc id="desc">A Prime Radiant crystal over a star-chart grid, with cyan and gold orbital paths and a starfield.</desc>
  <defs>
    <radialGradient id="core" cx="50%" cy="46%" r="58%">
      <stop offset="0" stop-color="#5fdcf2" stop-opacity="0.42"/>
      <stop offset="0.5" stop-color="#1b3a66" stop-opacity="0.18"/>
      <stop offset="1" stop-color="#0a0f1f" stop-opacity="0"/>
    </radialGradient>
  </defs>

  <rect width="64" height="64" rx="14" fill="#0a0f1f"/>
  <path d="M8 16h48M8 32h48M8 48h48M16 8v48M32 8v48M48 8v48" stroke="#1c3158" stroke-width="0.7" opacity="0.5"/>
  <circle cx="32" cy="32" r="28" fill="url(#core)"/>

  <ellipse cx="32" cy="32" rx="25" ry="8.5" fill="none" stroke="#5fdcf2" stroke-width="1.15" opacity="0.72" transform="rotate(-24 32 32)"/>
  <ellipse cx="32" cy="32" rx="24" ry="7.5" fill="none" stroke="#e8b765" stroke-width="0.85" opacity="0.5" transform="rotate(36 32 32)"/>

  <path d="M32 8 53 20V44L32 56 11 44V20Z" fill="#0c1730" stroke="#5fdcf2" stroke-width="1.5" stroke-linejoin="round"/>
  <path d="M32 8V56M11 20 53 44M53 20 11 44" stroke="#7fe3f5" stroke-width="0.8" opacity="0.55"/>
  <path d="M32 20 42.5 26V38L32 44 21.5 38V26Z" fill="none" stroke="#e8b765" stroke-width="1" opacity="0.8" stroke-linejoin="round"/>
  <circle cx="32" cy="32" r="3" fill="#bfeaf6"/>

  <circle cx="17" cy="18" r="1.25" fill="#bfeaf6"/>
  <circle cx="48" cy="17" r="1" fill="#5fdcf2"/>
  <circle cx="50" cy="44" r="1.1" fill="#e8b765"/>
  <circle cx="13" cy="46" r="0.9" fill="#bfeaf6"/>
</svg>
